<?xml version="1.0" encoding="UTF-8" standalone="no"?>
<!-- Created with Inkscape (http://www.inkscape.org/) -->

<svg
   xmlns:dc="http://purl.org/dc/elements/1.1/"
   xmlns:cc="http://creativecommons.org/ns#"
   xmlns:rdf="http://www.w3.org/1999/02/22-rdf-syntax-ns#"
   xmlns:svg="http://www.w3.org/2000/svg"
   xmlns="http://www.w3.org/2000/svg"
   xmlns:sodipodi="http://sodipodi.sourceforge.net/DTD/sodipodi-0.dtd"
   xmlns:inkscape="http://www.inkscape.org/namespaces/inkscape"
   width="43.21328mm"
   height="25.135416mm"
   viewBox="0 0 43.21328 25.135416"
   version="1.1"
   id="svg8"
   inkscape:version="0.92.5 (2060ec1f9f, 2020-04-08)"
   sodipodi:docname="logo.svg">
  <defs
     id="defs2" />
  <sodipodi:namedview
     id="base"
     pagecolor="#ffffff"
     bordercolor="#666666"
     borderopacity="1.0"
     inkscape:pageopacity="0.0"
     inkscape:pageshadow="2"
     inkscape:zoom="2.8"
     inkscape:cx="-20.926611"
     inkscape:cy="11.271133"
     inkscape:document-units="mm"
     inkscape:current-layer="layer1"
     showgrid="false"
     inkscape:window-width="1920"
     inkscape:window-height="1051"
     inkscape:window-x="0"
     inkscape:window-y="0"
     inkscape:window-maximized="1" />
  <metadata
     id="metadata5">
    <rdf:RDF>
      <cc:Work
         rdf:about="">
        <dc:format>image/svg+xml</dc:format>
        <dc:type
           rdf:resource="http://purl.org/dc/dcmitype/StillImage" />
        <dc:title></dc:title>
      </cc:Work>
    </rdf:RDF>
  </metadata>
  <g
     inkscape:label="Calque 1"
     inkscape:groupmode="layer"
     id="layer1"
     transform="translate(-67.643709,-103.67031)">
    <g
       id="g961"
       transform="matrix(0.04474073,0,0,0.04474073,66.816005,102.81721)">
      <circle
         id="circle932"
         r="50.200001"
         cy="299.60001"
         cx="299.5"
         class="st0"
         style="fill:#00d8ff" />
      <g
         id="g936">
        <path
           id="path934"
           d="M 299.5,414.6 C 229,414.6 167.4,406.3 121.3,390.5 91.4,380.3 66,366.7 47.9,351.2 28.7,334.8 18.5,316.9 18.5,299.6 c 0,-33.2 36.4,-65.7 97.5,-86.9 50,-17.4 115.2,-27.1 183.4,-27.1 67,0 131.3,9.4 181,26.6 29.1,10 53.6,23 71,37.4 18.9,15.8 28.9,33.1 28.9,50 0,34.5 -40.7,69.4 -106.3,91.1 -46.4,15.4 -108.4,23.9 -174.5,23.9 z m 0,-205 c -64.7,0 -128.7,9.4 -175.5,25.7 -56.2,19.6 -81.4,46.4 -81.4,64.3 0,18.6 27.1,47.9 86.5,68.2 43.6,14.9 102.6,22.8 170.4,22.8 63.6,0 122.9,-8 167,-22.7 61.7,-20.5 89.9,-49.8 89.9,-68.3 0,-9.5 -7.2,-20.7 -20.3,-31.6 C 521,255.4 499,243.9 472.7,234.8 425.4,218.6 363.9,209.6 299.5,209.6 Z"
           class="st0"
           inkscape:connector-curvature="0"
           style="fill:#00d8ff" />
      </g>
      <g
         id="g940">
        <path
           id="path938"
           d="m 185.6,549.8 c -10.2,0 -19.2,-2.2 -26.8,-6.6 -28.7,-16.6 -38.7,-64.4 -26.6,-127.9 9.9,-52.1 34.1,-113.3 68.2,-172.4 33.5,-58 73.7,-109 113.4,-143.5 23.2,-20.2 46.7,-35 67.9,-42.8 23.1,-8.5 43.1,-8.5 57.7,-0.1 29.9,17.2 39.8,70 25.8,137.6 -9.9,48 -33.5,105.9 -66.5,163.2 -35.2,61 -73.2,110.2 -109.9,142.3 -23.8,20.8 -48.3,36 -70.7,43.9 -11.7,4.2 -22.7,6.3 -32.5,6.3 z m 25.1,-300.9 10.4,6 c -32.3,56 -56.2,116.1 -65.4,164.9 -11.1,58.5 -0.4,93.7 15,102.6 3.8,2.2 8.8,3.4 14.9,3.4 19.9,0 51.2,-12.6 87.4,-44.2 34.7,-30.3 71,-77.5 104.9,-136.2 31.8,-55.1 54.4,-110.5 63.8,-156 13.1,-63.7 1.8,-102.7 -14.3,-112 -8.2,-4.7 -21.5,-4.1 -37.5,1.8 -18.5,6.8 -39.4,20.1 -60.4,38.4 -37.7,32.8 -76.2,81.6 -108.4,137.4 z"
           class="st0"
           inkscape:connector-curvature="0"
           style="fill:#00d8ff" />
      </g>
      <g
         id="g944">
        <path
           id="path942"
           d="m 413.4,550.1 c -27.2,0 -61.7,-16.4 -97.7,-47.4 -40.2,-34.6 -81.1,-86.1 -115.3,-145.2 v 0 c -33.6,-58 -57.6,-118.3 -67.7,-170 -5.9,-30.2 -7,-57.9 -3.2,-80.2 4.2,-24.3 14.1,-41.6 28.8,-50.1 29.8,-17.3 80.5,0.5 132.1,46.4 36.6,32.5 75,81.9 108.1,139.1 35.3,61 59,118.5 68.4,166.3 6.1,31 7.1,59.8 2.8,83.2 -4.6,24.9 -15,42.6 -30,51.3 -7.5,4.4 -16.4,6.6 -26.3,6.6 z M 221.2,345.5 c 32.4,56 72.6,106.7 110.2,139 45.1,38.8 80.9,47.2 96.4,38.2 16.1,-9.3 27.9,-47.4 15.7,-109 -9,-45.2 -31.7,-100.2 -65.7,-158.9 C 345.9,199.7 309.2,152.4 274.5,121.6 225.9,78.4 186.5,68.7 170.4,78 c -8.2,4.7 -14.3,16.6 -17.2,33.4 -3.3,19.4 -2.3,44.2 3.1,71.5 9.6,49.1 32.6,106.8 64.9,162.6 z"
           class="st0"
           inkscape:connector-curvature="0"
           style="fill:#00d8ff" />
      </g>
    </g>
    <g
       id="g988"
       transform="translate(4.0821428,-0.7559524)">
      <circle
         style="fill:none;fill-opacity:1;stroke:#e22653;stroke-width:1.05833328"
         id="circle4"
         r="12.038542"
         cy="116.99397"
         cx="94.207138" />
      <path
         id="path6"
         d="m 93.810129,112.24615 c -0.675587,0 -1.34456,0.13309 -1.968738,0.39164 -0.624152,0.25852 -1.191287,0.63749 -1.668992,1.11522 -0.477732,0.47773 -0.856668,1.04486 -1.115219,1.66904 -0.258524,0.62418 -0.391609,1.29318 -0.391609,1.96879 0,0.67562 0.133085,1.34459 0.391609,1.96879 0.258551,0.62418 0.637487,1.19132 1.115219,1.66905 0.477705,0.47773 1.04484,0.85667 1.668992,1.11522 0.624178,0.25855 1.293151,0.39161 1.968738,0.39161 1.36443,0 2.672979,-0.54203 3.637756,-1.50683 0.964803,-0.96483 1.506802,-2.27338 1.506802,-3.63784 -8.2e-4,-0.73041 -0.157162,-1.45227 -0.458602,-2.11756 -0.301466,-0.6653 -0.741124,-1.25876 -1.289738,-1.74093 h 2.552197 v -1.2862 h -5.787628 v 0.008 c -0.05355,-0.003 -0.107156,-0.006 -0.160787,-0.008 z m 0,1.2862 c 0.506703,0 1.008433,0.0998 1.47656,0.29368 0.468127,0.19392 0.893472,0.47813 1.25177,0.83643 0.358273,0.3583 0.642488,0.78367 0.836401,1.2518 0.193887,0.46812 0.293688,0.96988 0.293688,1.47658 0,1.02333 -0.406506,2.00478 -1.130089,2.72839 -0.723609,0.72361 -1.705001,1.13011 -2.72833,1.13011 -0.506677,0 -1.008407,-0.0998 -1.476534,-0.29371 -0.468127,-0.19389 -0.893471,-0.4781 -1.25177,-0.8364 -0.358299,-0.3583 -0.642488,-0.78367 -0.836401,-1.2518 -0.193913,-0.46813 -0.293714,-0.96988 -0.293714,-1.47659 0,-0.5067 0.0998,-1.00846 0.293714,-1.47658 0.193913,-0.46813 0.478102,-0.8935 0.836401,-1.2518 0.358299,-0.3583 0.783643,-0.64251 1.25177,-0.83643 0.468127,-0.19388 0.969857,-0.29368 1.476534,-0.29368 z"
         inkscape:connector-curvature="0"
         style="fill:#e22653;stroke-width:0.26458332" />
    </g>
  </g>
  <style
     id="style930"
     type="text/css">
	.st0{fill:#00D8FF;}
</style>
</svg>
